<svg width="150" height="150" viewBox="0 0 150 150" fill="none" xmlns="http://www.w3.org/2000/svg">
<path d="M71.0371 110C72.1417 110 73.0467 110.897 72.9446 111.997C72.7393 114.207 72.1942 116.378 71.3244 118.435C70.1937 121.109 68.5363 123.539 66.447 125.585C64.3577 127.632 61.8773 129.255 59.1475 130.363C56.4177 131.471 53.4918 132.041 50.5371 132.041C47.5824 132.041 44.6566 131.471 41.9267 130.363C39.1969 129.255 36.7165 127.632 34.6272 125.585C32.5379 123.539 30.8805 121.109 29.7498 118.435C28.88 116.378 28.3349 114.207 28.1297 111.997C28.0275 110.897 28.9325 110 30.0371 110L50.5371 110H71.0371Z" fill="white"/>
<path d="M121.037 110C122.142 110 123.047 110.897 122.945 111.997C122.739 114.207 122.194 116.378 121.324 118.435C120.194 121.109 118.536 123.539 116.447 125.585C114.358 127.632 111.877 129.255 109.147 130.363C106.418 131.471 103.492 132.041 100.537 132.041C97.5824 132.041 94.6566 131.471 91.9267 130.363C89.1969 129.255 86.7165 127.632 84.6272 125.585C82.5379 123.539 80.8805 121.109 79.7498 118.435C78.88 116.378 78.3349 114.207 78.1297 111.997C78.0275 110.897 78.9325 110 80.0371 110L100.537 110H121.037Z" fill="white"/>
<rect x="26.0371" y="97.9995" width="100" height="9" rx="4.5" fill="white"/>
<path fill-rule="evenodd" clip-rule="evenodd" d="M38.9361 41.0004C19.7434 47.9855 6.03711 66.3919 6.03711 87.9995V92.9995C6.03711 94.1041 6.93254 94.9995 8.03711 94.9995H144.037C145.142 94.9995 146.037 94.1041 146.037 92.9995V87.9995C146.037 66.3919 132.331 47.9855 113.138 41.0004C113.587 39.0282 113.869 37.021 113.982 34.999C114.043 33.8961 113.142 33 112.037 33H107.886C106.448 31.0809 104.781 29.2923 102.907 27.6655C99.3785 24.6011 95.1895 22.1704 90.5791 20.512C85.9687 18.8536 81.0273 18 76.0371 18C71.0469 18 66.1055 18.8536 61.4951 20.512C56.8848 22.1704 52.6957 24.6011 49.167 27.6655C47.2937 29.2924 45.6259 31.0809 44.1878 33H40.0371C38.9325 33 38.0313 33.8961 38.0926 34.999C38.205 37.021 38.4875 39.0282 38.9361 41.0004ZM31.0371 68C31.0371 59.7157 37.7528 53 46.0371 53C54.3214 53 61.0371 59.7157 61.0371 68C61.0371 76.2843 54.3214 83 46.0371 83C37.7528 83 31.0371 76.2843 31.0371 68ZM106.037 53C97.7528 53 91.0371 59.7157 91.0371 68C91.0371 76.2843 97.7528 83 106.037 83C114.321 83 121.037 76.2843 121.037 68C121.037 59.7157 114.321 53 106.037 53Z" fill="white"/>
<path fill-rule="evenodd" clip-rule="evenodd" d="M143.508 62.5393C143.907 63.2697 144.972 63.2584 145.299 62.4932C147.305 57.8001 148.392 52.9219 148.522 47.9999C148.536 47.4478 148.087 47 147.535 47H133.213C132.261 47 131.83 48.2266 132.545 48.8541C136.954 52.7215 140.677 57.352 143.508 62.5393ZM19.0313 48.8541C19.7467 48.2266 19.3151 47 18.3635 47L2.98716 47C2.43488 47 1.98579 47.4478 2.00034 47.9999C2.14037 53.3102 3.39498 58.5695 5.71517 63.6004C6.06303 64.3546 7.12533 64.3386 7.50556 63.6001C10.3981 57.9823 14.3237 52.9832 19.0313 48.8541Z" fill="white"/>
</svg>
