<svg width="150" height="150" viewBox="0 0 150 150" fill="none" xmlns="http://www.w3.org/2000/svg">
<path d="M114 84.5C115.105 84.5 116.005 85.396 115.951 86.4992C115.722 91.1347 114.697 95.7016 112.917 99.9987C110.882 104.912 107.899 109.377 104.138 113.138C100.377 116.899 95.9124 119.882 90.9987 121.917C86.085 123.952 80.8185 125 75.5 125C70.1815 125 64.915 123.952 60.0013 121.917C55.0876 119.882 50.6229 116.899 46.8622 113.138C43.1014 109.377 40.1182 104.912 38.0829 99.9987C36.303 95.7016 35.2785 91.1347 35.0494 86.4992C34.9948 85.396 35.8954 84.5 37 84.5L75.5 84.5H114Z" fill="#37BE43"/>
<path fill-rule="evenodd" clip-rule="evenodd" d="M8.08562 74.4993C7.70161 75.755 8.65859 77 9.97162 77H140.1C141.413 77 142.37 75.755 141.986 74.4993C133.222 45.842 106.563 25 75.0358 25C43.5089 25 16.8499 45.842 8.08562 74.4993Z" fill="#37BE43"/>
</svg>
